<svg xmlns="http://www.w3.org/2000/svg" version="1.1" viewBox="-5.0 -10.0 110.0 110.0" style="fill:#fff">
 <path d="m8.332 25c0-6.9023 5.5977-12.5 12.5-12.5h58.336c6.9023 0 12.5 5.5977 12.5 12.5v50c0 6.9023-5.5977 12.5-12.5 12.5h-58.336c-6.9023 0-12.5-5.5977-12.5-12.5zm12.5-4.168c-2.3008 0-4.1641 1.8672-4.1641 4.168v12.5h66.664v-12.5c0-2.3008-1.8633-4.168-4.1641-4.168zm-4.1641 54.168v-29.168h66.664v29.168c0 2.3008-1.8633 4.168-4.1641 4.168h-58.336c-2.3008 0-4.1641-1.8672-4.1641-4.168zm58.414-41.668c2.3008 0 4.168-1.8633 4.168-4.1641s-1.8672-4.168-4.168-4.168h-0.039062c-2.3008 0-4.168 1.8672-4.168 4.168s1.8672 4.1641 4.168 4.1641zm-12.5 0c2.3008 0 4.168-1.8633 4.168-4.1641s-1.8672-4.168-4.168-4.168h-0.039062c-2.3008 0-4.168 1.8672-4.168 4.168s1.8672 4.1641 4.168 4.1641z" fill-rule="evenodd"/>
</svg>